<svg width="65" height="65" viewBox="0 0 65 65" fill="none" xmlns="http://www.w3.org/2000/svg">
<path d="M24.3969 41.5443L21.2907 44.6505C20.863 45.0782 20.3732 45.1741 19.8213 44.9382C19.2694 44.7023 18.9939 44.28 18.9948 43.6714V22.6371C18.9948 21.8943 19.2595 21.2586 19.7889 20.7301C20.3183 20.2016 20.954 19.9369 21.6959 19.936H43.3041C44.0469 19.936 44.683 20.2007 45.2124 20.7301C45.7418 21.2595 46.0061 21.8952 46.0052 22.6371V38.8433C46.0052 39.5861 45.7409 40.2222 45.2124 40.7516C44.6839 41.281 44.0478 41.5452 43.3041 41.5443H24.3969ZM32.5 37.4928C32.8826 37.4928 33.2036 37.3631 33.4629 37.1038C33.7222 36.8445 33.8514 36.524 33.8505 36.1423C33.8496 35.7605 33.72 35.44 33.4616 35.1807C33.2032 34.9214 32.8826 34.7917 32.5 34.7917C32.1174 34.7917 31.7968 34.9214 31.5384 35.1807C31.28 35.44 31.1504 35.7605 31.1495 36.1423C31.1486 36.524 31.2782 36.845 31.5384 37.1052C31.7986 37.3654 32.1192 37.4946 32.5 37.4928ZM32.5 32.0907C32.8826 32.0907 33.2036 31.961 33.4629 31.7017C33.7222 31.4424 33.8514 31.1219 33.8505 30.7402V25.3381C33.8505 24.9555 33.7209 24.6349 33.4616 24.3765C33.2023 24.1181 32.8817 23.9885 32.5 23.9876C32.1183 23.9867 31.7977 24.1163 31.5384 24.3765C31.2791 24.6367 31.1495 24.9573 31.1495 25.3381V30.7402C31.1495 31.1228 31.2791 31.4438 31.5384 31.7031C31.7977 31.9624 32.1183 32.0916 32.5 32.0907Z" fill="#AEAEAE"/>
</svg>
